<mxfile host="app.diagrams.net" modified="2024-03-06T09:26:27.283Z" agent="Mozilla/5.0 (Windows NT 10.0; Win64; x64) AppleWebKit/537.36 (KHTML, like Gecko) Chrome/122.0.0.0 Safari/537.36" etag="KWYx_jxdBqW01cnvlwBZ" version="24.0.2" type="github">
  <diagram name="Seite-1" id="XDvTDX2VNJkfJj7L1AB-">
    <mxGraphModel dx="1775" dy="948" grid="1" gridSize="10" guides="1" tooltips="1" connect="1" arrows="1" fold="1" page="1" pageScale="1" pageWidth="827" pageHeight="1169" math="0" shadow="0">
      <root>
        <mxCell id="0" />
        <mxCell id="1" parent="0" />
        <mxCell id="TXZ2MpRlag0ev8KAw5-P-1" value="&lt;b&gt;&lt;font style=&quot;font-size: 14px;&quot;&gt;0,5 m²&lt;/font&gt;&lt;/b&gt;" style="rounded=0;whiteSpace=wrap;html=1;" vertex="1" parent="1">
          <mxGeometry x="350" y="430" width="1190" height="40" as="geometry" />
        </mxCell>
        <mxCell id="TXZ2MpRlag0ev8KAw5-P-2" value="434 cm" style="text;html=1;align=center;verticalAlign=middle;whiteSpace=wrap;rounded=0;" vertex="1" parent="1">
          <mxGeometry x="900" y="400" width="60" height="30" as="geometry" />
        </mxCell>
        <mxCell id="TXZ2MpRlag0ev8KAw5-P-3" value="11,5 cm" style="text;html=1;align=center;verticalAlign=middle;whiteSpace=wrap;rounded=0;rotation=-90;" vertex="1" parent="1">
          <mxGeometry x="270" y="440" width="50" height="25" as="geometry" />
        </mxCell>
        <mxCell id="TXZ2MpRlag0ev8KAw5-P-4" value="" style="rounded=0;whiteSpace=wrap;html=1;rotation=90;" vertex="1" parent="1">
          <mxGeometry x="240" y="580" width="300" height="80" as="geometry" />
        </mxCell>
        <mxCell id="TXZ2MpRlag0ev8KAw5-P-5" value="116,5" style="text;whiteSpace=wrap;rotation=-90;" vertex="1" parent="1">
          <mxGeometry x="310" y="600" width="40" height="20" as="geometry" />
        </mxCell>
        <mxCell id="TXZ2MpRlag0ev8KAw5-P-6" value="" style="rounded=0;whiteSpace=wrap;html=1;rotation=90;" vertex="1" parent="1">
          <mxGeometry x="1350" y="580" width="300" height="80" as="geometry" />
        </mxCell>
        <mxCell id="TXZ2MpRlag0ev8KAw5-P-7" value="" style="rounded=0;whiteSpace=wrap;html=1;rotation=90;" vertex="1" parent="1">
          <mxGeometry x="490" y="590" width="300" height="60" as="geometry" />
        </mxCell>
        <mxCell id="TXZ2MpRlag0ev8KAw5-P-8" value="" style="rounded=0;whiteSpace=wrap;html=1;rotation=90;" vertex="1" parent="1">
          <mxGeometry x="780" y="583.75" width="300" height="72.5" as="geometry" />
        </mxCell>
        <mxCell id="TXZ2MpRlag0ev8KAw5-P-9" value="14 cm" style="text;html=1;align=center;verticalAlign=middle;whiteSpace=wrap;rounded=0;rotation=0;" vertex="1" parent="1">
          <mxGeometry x="615" y="480" width="50" height="25" as="geometry" />
        </mxCell>
        <mxCell id="TXZ2MpRlag0ev8KAw5-P-10" value="" style="rounded=0;whiteSpace=wrap;html=1;rotation=90;" vertex="1" parent="1">
          <mxGeometry x="1069.5" y="590" width="300" height="60" as="geometry" />
        </mxCell>
        <mxCell id="TXZ2MpRlag0ev8KAw5-P-11" value="14 cm" style="text;html=1;align=center;verticalAlign=middle;whiteSpace=wrap;rounded=0;rotation=0;" vertex="1" parent="1">
          <mxGeometry x="1194.5" y="480" width="50" height="25" as="geometry" />
        </mxCell>
        <mxCell id="TXZ2MpRlag0ev8KAw5-P-12" value="20 cm" style="text;html=1;align=center;verticalAlign=middle;whiteSpace=wrap;rounded=0;rotation=0;" vertex="1" parent="1">
          <mxGeometry x="365" y="480" width="50" height="25" as="geometry" />
        </mxCell>
        <mxCell id="TXZ2MpRlag0ev8KAw5-P-13" value="20 cm" style="text;html=1;align=center;verticalAlign=middle;whiteSpace=wrap;rounded=0;rotation=0;" vertex="1" parent="1">
          <mxGeometry x="1475" y="480" width="50" height="25" as="geometry" />
        </mxCell>
        <mxCell id="TXZ2MpRlag0ev8KAw5-P-14" value="20 cm" style="text;html=1;align=center;verticalAlign=middle;whiteSpace=wrap;rounded=0;rotation=0;" vertex="1" parent="1">
          <mxGeometry x="905" y="480" width="50" height="25" as="geometry" />
        </mxCell>
        <mxCell id="TXZ2MpRlag0ev8KAw5-P-17" value="128 cm" style="text;html=1;align=center;verticalAlign=middle;whiteSpace=wrap;rounded=0;rotation=-90;" vertex="1" parent="1">
          <mxGeometry x="1590" y="595" width="50" height="25" as="geometry" />
        </mxCell>
        <mxCell id="TXZ2MpRlag0ev8KAw5-P-18" value="" style="endArrow=none;html=1;rounded=0;" edge="1" parent="1">
          <mxGeometry width="50" height="50" relative="1" as="geometry">
            <mxPoint x="1640" y="810" as="sourcePoint" />
            <mxPoint x="1640" y="430" as="targetPoint" />
          </mxGeometry>
        </mxCell>
        <mxCell id="TXZ2MpRlag0ev8KAw5-P-19" value="" style="endArrow=none;html=1;rounded=0;" edge="1" parent="1">
          <mxGeometry width="50" height="50" relative="1" as="geometry">
            <mxPoint x="1640" y="810" as="sourcePoint" />
            <mxPoint x="2200" y="270" as="targetPoint" />
          </mxGeometry>
        </mxCell>
        <mxCell id="TXZ2MpRlag0ev8KAw5-P-20" value="" style="endArrow=none;html=1;rounded=0;" edge="1" parent="1">
          <mxGeometry width="50" height="50" relative="1" as="geometry">
            <mxPoint x="1640" y="430" as="sourcePoint" />
            <mxPoint x="2200" y="270" as="targetPoint" />
          </mxGeometry>
        </mxCell>
        <mxCell id="TXZ2MpRlag0ev8KAw5-P-21" value="397, 5 cm" style="text;html=1;align=center;verticalAlign=middle;whiteSpace=wrap;rounded=0;rotation=-15;" vertex="1" parent="1">
          <mxGeometry x="1830" y="330" width="130" height="25" as="geometry" />
        </mxCell>
        <mxCell id="TXZ2MpRlag0ev8KAw5-P-22" value="22 Grad" style="text;html=1;align=center;verticalAlign=middle;whiteSpace=wrap;rounded=0;" vertex="1" parent="1">
          <mxGeometry x="1650" y="420" width="60" height="30" as="geometry" />
        </mxCell>
        <mxCell id="TXZ2MpRlag0ev8KAw5-P-23" value="&lt;span style=&quot;color: rgb(51, 51, 51); font-family: Arial, sans-serif; font-size: 17.325px; font-style: normal; font-variant-ligatures: normal; font-variant-caps: normal; letter-spacing: normal; orphans: 2; text-align: right; text-indent: 0px; text-transform: none; widows: 2; word-spacing: 0px; -webkit-text-stroke-width: 0px; white-space: nowrap; background-color: rgb(244, 246, 248); text-decoration-thickness: initial; text-decoration-style: initial; text-decoration-color: initial; float: none; display: inline !important;&quot;&gt;&lt;b&gt;4 x 2,36 m²&lt;/b&gt;&lt;/span&gt;" style="text;whiteSpace=wrap;html=1;" vertex="1" parent="1">
          <mxGeometry x="1814" y="440" width="70" height="40" as="geometry" />
        </mxCell>
        <mxCell id="TXZ2MpRlag0ev8KAw5-P-24" value="&lt;b&gt;0,23 m²&lt;/b&gt;" style="text;html=1;align=center;verticalAlign=middle;whiteSpace=wrap;rounded=0;" vertex="1" parent="1">
          <mxGeometry x="360" y="600" width="60" height="30" as="geometry" />
        </mxCell>
        <mxCell id="TXZ2MpRlag0ev8KAw5-P-25" value="&lt;b&gt;0,23 m²&lt;/b&gt;" style="text;html=1;align=center;verticalAlign=middle;whiteSpace=wrap;rounded=0;" vertex="1" parent="1">
          <mxGeometry x="1470" y="600" width="60" height="30" as="geometry" />
        </mxCell>
        <mxCell id="TXZ2MpRlag0ev8KAw5-P-26" value="&lt;b&gt;0,16 m²&lt;/b&gt;" style="text;html=1;align=center;verticalAlign=middle;whiteSpace=wrap;rounded=0;" vertex="1" parent="1">
          <mxGeometry x="1194.5" y="580" width="50.5" height="30" as="geometry" />
        </mxCell>
        <mxCell id="TXZ2MpRlag0ev8KAw5-P-27" value="&lt;b&gt;0,16 m²&lt;/b&gt;" style="text;html=1;align=center;verticalAlign=middle;whiteSpace=wrap;rounded=0;" vertex="1" parent="1">
          <mxGeometry x="614.5" y="600" width="50.5" height="30" as="geometry" />
        </mxCell>
        <mxCell id="TXZ2MpRlag0ev8KAw5-P-28" value="&lt;b&gt;0,23 m²&lt;/b&gt;" style="text;html=1;align=center;verticalAlign=middle;whiteSpace=wrap;rounded=0;" vertex="1" parent="1">
          <mxGeometry x="900" y="595" width="60" height="30" as="geometry" />
        </mxCell>
        <mxCell id="TXZ2MpRlag0ev8KAw5-P-31" value="&lt;span style=&quot;orphans: 2; text-align: right; text-indent: 0px; widows: 2; background-color: rgb(244, 246, 248); text-decoration-thickness: initial; text-decoration-style: initial; text-decoration-color: initial; float: none; display: inline !important;&quot;&gt;&lt;b style=&quot;color: rgb(51, 51, 51); font-family: Arial, sans-serif; font-size: 17.325px; font-style: normal; font-variant-ligatures: normal; font-variant-caps: normal; letter-spacing: normal; text-transform: none; word-spacing: 0px; -webkit-text-stroke-width: 0px; white-space: nowrap;&quot;&gt;2 x &lt;/b&gt;&lt;font face=&quot;Arial, sans-serif&quot; color=&quot;#333333&quot;&gt;&lt;span style=&quot;font-size: 17.325px; text-wrap: nowrap;&quot;&gt;&lt;b&gt;1,51&lt;/b&gt;&lt;/span&gt;&lt;/font&gt;&lt;b style=&quot;color: rgb(51, 51, 51); font-family: Arial, sans-serif; font-size: 17.325px; font-style: normal; font-variant-ligatures: normal; font-variant-caps: normal; letter-spacing: normal; text-transform: none; word-spacing: 0px; -webkit-text-stroke-width: 0px; white-space: nowrap;&quot;&gt;&amp;nbsp;m²&lt;/b&gt;&lt;/span&gt;" style="text;whiteSpace=wrap;html=1;" vertex="1" parent="1">
          <mxGeometry x="890" y="820" width="70" height="40" as="geometry" />
        </mxCell>
        <mxCell id="TXZ2MpRlag0ev8KAw5-P-32" value="&lt;span style=&quot;orphans: 2; text-align: right; text-indent: 0px; widows: 2; background-color: rgb(244, 246, 248); text-decoration-thickness: initial; text-decoration-style: initial; text-decoration-color: initial; float: none; font-size: 23px; display: inline !important;&quot;&gt;&lt;b&gt;&lt;span style=&quot;color: rgb(51, 51, 51); font-family: Arial, sans-serif; font-style: normal; font-variant-ligatures: normal; font-variant-caps: normal; letter-spacing: normal; text-transform: none; word-spacing: 0px; -webkit-text-stroke-width: 0px; white-space: nowrap;&quot;&gt;= 4 x 2,36&lt;/span&gt;&lt;span style=&quot;color: rgb(51, 51, 51); font-family: Arial, sans-serif; font-style: normal; font-variant-ligatures: normal; font-variant-caps: normal; letter-spacing: normal; text-transform: none; word-spacing: 0px; -webkit-text-stroke-width: 0px; white-space: nowrap;&quot;&gt;&amp;nbsp;m² + 2 x 1,51 m² = 9,44 m² + 3,02 m² = &lt;/span&gt;&lt;font style=&quot;font-size: 23px;&quot; face=&quot;Arial, sans-serif&quot; color=&quot;#333333&quot;&gt;&lt;span style=&quot;text-wrap: nowrap;&quot;&gt;12,46&lt;/span&gt;&lt;/font&gt;&lt;span style=&quot;color: rgb(51, 51, 51); font-family: Arial, sans-serif; font-style: normal; font-variant-ligatures: normal; font-variant-caps: normal; letter-spacing: normal; text-transform: none; word-spacing: 0px; -webkit-text-stroke-width: 0px; white-space: nowrap;&quot;&gt;&amp;nbsp; m²&lt;/span&gt;&lt;/b&gt;&lt;/span&gt;" style="text;whiteSpace=wrap;html=1;" vertex="1" parent="1">
          <mxGeometry x="1395" y="895" width="570" height="30" as="geometry" />
        </mxCell>
        <mxCell id="TXZ2MpRlag0ev8KAw5-P-34" value="" style="endArrow=none;html=1;rounded=0;entryX=1;entryY=0.5;entryDx=0;entryDy=0;" edge="1" parent="1" target="TXZ2MpRlag0ev8KAw5-P-1">
          <mxGeometry width="50" height="50" relative="1" as="geometry">
            <mxPoint x="350" y="452.19" as="sourcePoint" />
            <mxPoint x="949.76" y="452.19" as="targetPoint" />
          </mxGeometry>
        </mxCell>
        <mxCell id="TXZ2MpRlag0ev8KAw5-P-35" value="" style="endArrow=none;html=1;rounded=0;entryX=1;entryY=0.25;entryDx=0;entryDy=0;" edge="1" parent="1" target="TXZ2MpRlag0ev8KAw5-P-1">
          <mxGeometry width="50" height="50" relative="1" as="geometry">
            <mxPoint x="350" y="434.69" as="sourcePoint" />
            <mxPoint x="940.24" y="435.01" as="targetPoint" />
          </mxGeometry>
        </mxCell>
        <mxCell id="TXZ2MpRlag0ev8KAw5-P-38" value="74 mm Deckmaß" style="text;html=1;align=center;verticalAlign=middle;whiteSpace=wrap;rounded=0;fontSize=8;rotation=-90;" vertex="1" parent="1">
          <mxGeometry x="260" y="370" width="60" height="10" as="geometry" />
        </mxCell>
        <mxCell id="TXZ2MpRlag0ev8KAw5-P-40" value="" style="endArrow=none;html=1;rounded=0;" edge="1" parent="1">
          <mxGeometry width="50" height="50" relative="1" as="geometry">
            <mxPoint x="350" y="750" as="sourcePoint" />
            <mxPoint x="430" y="750" as="targetPoint" />
          </mxGeometry>
        </mxCell>
        <mxCell id="TXZ2MpRlag0ev8KAw5-P-41" value="" style="endArrow=none;html=1;rounded=0;" edge="1" parent="1">
          <mxGeometry width="50" height="50" relative="1" as="geometry">
            <mxPoint x="350" y="730" as="sourcePoint" />
            <mxPoint x="430" y="730" as="targetPoint" />
          </mxGeometry>
        </mxCell>
        <mxCell id="TXZ2MpRlag0ev8KAw5-P-42" value="" style="endArrow=none;html=1;rounded=0;" edge="1" parent="1">
          <mxGeometry width="50" height="50" relative="1" as="geometry">
            <mxPoint x="350" y="710" as="sourcePoint" />
            <mxPoint x="430" y="710" as="targetPoint" />
          </mxGeometry>
        </mxCell>
        <mxCell id="TXZ2MpRlag0ev8KAw5-P-43" value="" style="endArrow=none;html=1;rounded=0;" edge="1" parent="1">
          <mxGeometry width="50" height="50" relative="1" as="geometry">
            <mxPoint x="350" y="690" as="sourcePoint" />
            <mxPoint x="430" y="690" as="targetPoint" />
          </mxGeometry>
        </mxCell>
        <mxCell id="TXZ2MpRlag0ev8KAw5-P-44" value="" style="endArrow=none;html=1;rounded=0;" edge="1" parent="1">
          <mxGeometry width="50" height="50" relative="1" as="geometry">
            <mxPoint x="350" y="670" as="sourcePoint" />
            <mxPoint x="430" y="670" as="targetPoint" />
          </mxGeometry>
        </mxCell>
        <mxCell id="TXZ2MpRlag0ev8KAw5-P-45" value="" style="endArrow=none;html=1;rounded=0;" edge="1" parent="1">
          <mxGeometry width="50" height="50" relative="1" as="geometry">
            <mxPoint x="350" y="649.35" as="sourcePoint" />
            <mxPoint x="430" y="649.35" as="targetPoint" />
          </mxGeometry>
        </mxCell>
        <mxCell id="TXZ2MpRlag0ev8KAw5-P-46" value="" style="endArrow=none;html=1;rounded=0;" edge="1" parent="1">
          <mxGeometry width="50" height="50" relative="1" as="geometry">
            <mxPoint x="350" y="629.35" as="sourcePoint" />
            <mxPoint x="430" y="629.35" as="targetPoint" />
          </mxGeometry>
        </mxCell>
        <mxCell id="TXZ2MpRlag0ev8KAw5-P-47" value="" style="endArrow=none;html=1;rounded=0;" edge="1" parent="1">
          <mxGeometry width="50" height="50" relative="1" as="geometry">
            <mxPoint x="350" y="609.6800000000001" as="sourcePoint" />
            <mxPoint x="430" y="609.6800000000001" as="targetPoint" />
          </mxGeometry>
        </mxCell>
        <mxCell id="TXZ2MpRlag0ev8KAw5-P-48" value="" style="endArrow=none;html=1;rounded=0;" edge="1" parent="1">
          <mxGeometry width="50" height="50" relative="1" as="geometry">
            <mxPoint x="350" y="589.35" as="sourcePoint" />
            <mxPoint x="430" y="589.35" as="targetPoint" />
          </mxGeometry>
        </mxCell>
        <mxCell id="TXZ2MpRlag0ev8KAw5-P-49" value="" style="endArrow=none;html=1;rounded=0;" edge="1" parent="1">
          <mxGeometry width="50" height="50" relative="1" as="geometry">
            <mxPoint x="350" y="570" as="sourcePoint" />
            <mxPoint x="430" y="570" as="targetPoint" />
          </mxGeometry>
        </mxCell>
        <mxCell id="TXZ2MpRlag0ev8KAw5-P-51" value="" style="endArrow=none;html=1;rounded=0;" edge="1" parent="1">
          <mxGeometry width="50" height="50" relative="1" as="geometry">
            <mxPoint x="350" y="550" as="sourcePoint" />
            <mxPoint x="430" y="550" as="targetPoint" />
          </mxGeometry>
        </mxCell>
        <mxCell id="TXZ2MpRlag0ev8KAw5-P-52" value="" style="endArrow=none;html=1;rounded=0;" edge="1" parent="1">
          <mxGeometry width="50" height="50" relative="1" as="geometry">
            <mxPoint x="350" y="530" as="sourcePoint" />
            <mxPoint x="430" y="530" as="targetPoint" />
          </mxGeometry>
        </mxCell>
        <mxCell id="TXZ2MpRlag0ev8KAw5-P-53" value="" style="endArrow=none;html=1;rounded=0;" edge="1" parent="1">
          <mxGeometry width="50" height="50" relative="1" as="geometry">
            <mxPoint x="350" y="510" as="sourcePoint" />
            <mxPoint x="430" y="510" as="targetPoint" />
          </mxGeometry>
        </mxCell>
        <mxCell id="TXZ2MpRlag0ev8KAw5-P-54" value="" style="endArrow=none;html=1;rounded=0;" edge="1" parent="1">
          <mxGeometry width="50" height="50" relative="1" as="geometry">
            <mxPoint x="350" y="492.18" as="sourcePoint" />
            <mxPoint x="430" y="492.18" as="targetPoint" />
          </mxGeometry>
        </mxCell>
        <mxCell id="TXZ2MpRlag0ev8KAw5-P-55" value="" style="endArrow=none;html=1;rounded=0;" edge="1" parent="1">
          <mxGeometry width="50" height="50" relative="1" as="geometry">
            <mxPoint x="350" y="470.35" as="sourcePoint" />
            <mxPoint x="430" y="470.35" as="targetPoint" />
          </mxGeometry>
        </mxCell>
        <mxCell id="TXZ2MpRlag0ev8KAw5-P-56" value="" style="endArrow=none;html=1;rounded=0;" edge="1" parent="1">
          <mxGeometry width="50" height="50" relative="1" as="geometry">
            <mxPoint x="350" y="763" as="sourcePoint" />
            <mxPoint x="430" y="763" as="targetPoint" />
          </mxGeometry>
        </mxCell>
        <mxCell id="TXZ2MpRlag0ev8KAw5-P-57" value="" style="endArrow=classic;html=1;rounded=0;entryX=0;entryY=0.25;entryDx=0;entryDy=0;" edge="1" parent="1" target="TXZ2MpRlag0ev8KAw5-P-1">
          <mxGeometry width="50" height="50" relative="1" as="geometry">
            <mxPoint x="310" y="370" as="sourcePoint" />
            <mxPoint x="390" y="370" as="targetPoint" />
          </mxGeometry>
        </mxCell>
        <mxCell id="TXZ2MpRlag0ev8KAw5-P-58" value="" style="endArrow=classic;html=1;rounded=0;exitX=0;exitY=0.5;exitDx=0;exitDy=0;entryX=0.166;entryY=1.014;entryDx=0;entryDy=0;entryPerimeter=0;" edge="1" parent="1" source="TXZ2MpRlag0ev8KAw5-P-38" target="TXZ2MpRlag0ev8KAw5-P-4">
          <mxGeometry width="50" height="50" relative="1" as="geometry">
            <mxPoint x="335" y="385" as="sourcePoint" />
            <mxPoint x="360" y="450" as="targetPoint" />
          </mxGeometry>
        </mxCell>
        <mxCell id="TXZ2MpRlag0ev8KAw5-P-59" value="" style="endArrow=none;html=1;rounded=0;" edge="1" parent="1">
          <mxGeometry width="50" height="50" relative="1" as="geometry">
            <mxPoint x="1640" y="773" as="sourcePoint" />
            <mxPoint x="1680" y="773" as="targetPoint" />
          </mxGeometry>
        </mxCell>
        <mxCell id="TXZ2MpRlag0ev8KAw5-P-60" value="" style="endArrow=none;html=1;rounded=0;" edge="1" parent="1">
          <mxGeometry width="50" height="50" relative="1" as="geometry">
            <mxPoint x="1640" y="750" as="sourcePoint" />
            <mxPoint x="1700" y="750" as="targetPoint" />
          </mxGeometry>
        </mxCell>
        <mxCell id="TXZ2MpRlag0ev8KAw5-P-61" value="" style="endArrow=none;html=1;rounded=0;" edge="1" parent="1">
          <mxGeometry width="50" height="50" relative="1" as="geometry">
            <mxPoint x="1640" y="730" as="sourcePoint" />
            <mxPoint x="1720" y="730" as="targetPoint" />
          </mxGeometry>
        </mxCell>
        <mxCell id="TXZ2MpRlag0ev8KAw5-P-62" value="" style="endArrow=none;html=1;rounded=0;" edge="1" parent="1">
          <mxGeometry width="50" height="50" relative="1" as="geometry">
            <mxPoint x="1640" y="710" as="sourcePoint" />
            <mxPoint x="1740" y="710" as="targetPoint" />
          </mxGeometry>
        </mxCell>
      </root>
    </mxGraphModel>
  </diagram>
</mxfile>
